<?xml version="1.0" encoding="UTF-8"?>
<svg id="Layer_1" xmlns="http://www.w3.org/2000/svg" version="1.1" viewBox="0 0 317.5 163.2">
  <!-- Generator: Adobe Illustrator 29.0.0, SVG Export Plug-In . SVG Version: 2.1.0 Build 186)  -->
  <defs>
    <style>
      .st0 {
        fill: #000f9f;
      }
    </style>
  </defs>
  <path class="st0" d="M8.6,154.6h300.3V8.6H8.6v146ZM317.5,163.2H0V0h317.5v163.2Z"/>
  <path class="st0" d="M63.1,62.8v17h4.4c6.3,0,11.1-2.2,11.1-8.7s-4.7-8.3-11.1-8.3h-4.4ZM63.1,112.8h-15.5v-63.5h23c15.9,0,24,9.8,24,21.8s-8.1,22.2-24,22.2h-7.4v19.5Z"/>
  <path class="st0" d="M109,91.7c0,5.2,3.4,9.1,8.2,9.1s8.2-3.9,8.2-9.1-3.5-9-8.2-9-8.2,3.7-8.2,9M94.5,91.7c0-12.9,10.1-22.1,22.7-22.1s22.7,9.3,22.7,22.1-10.1,22.2-22.7,22.2-22.7-9.3-22.7-22.2"/>
  <path class="st0" d="M171.6,82.6h-5.3c-6.3,0-7.9,5.4-7.9,10.8v19.4h-14.5v-42.2h14v6.7c.9-4.8,4-6.9,6.8-6.9s6.9.2,6.9.2v12Z"/>
  <path class="st0" d="M196.6,55.5v15.1h8.4v11.9h-8.4v15.3c0,2.5,2.1,2.8,3.7,2.8,2.7,0,4.7-.3,4.7-.3v12.4s-6.8.5-10.3.5c-6.8,0-12.6-1.9-12.6-10.6v-20.2h-6.3v-11.9h6.3v-15.1h14.5Z"/>
  <path class="st0" d="M222.7,91.7c0,5.2,3.4,9.1,8.2,9.1s8.2-3.9,8.2-9.1-3.4-9-8.2-9-8.2,3.7-8.2,9M208.1,91.7c0-12.9,10.1-22.1,22.7-22.1s22.7,9.3,22.7,22.1-10.1,22.2-22.7,22.2-22.7-9.3-22.7-22.2"/>
  <path class="st0" d="M265,95.7c5.1,0,9.2,4.1,9.2,9.2s-4.1,9.1-9.2,9.1-9.1-4.1-9.1-9.1,4.1-9.2,9.1-9.2"/>
</svg>