<svg xmlns="http://www.w3.org/2000/svg" viewBox="0 0 174.4 49.74"><defs><style>.logo-porto-1{isolation:isolate;}.logo-porto-2{fill:#000f9f;}</style></defs><g id="logo-porto_2" data-name="logo-porto 2"><g id="Calendar" class="logo-porto-1"><g id="Sidebar"><path class="logo-porto-2" d="M12,48.9H0V0H17.67C29.9,0,36.12,7.55,36.12,16.77S29.9,33.88,17.67,33.88H12Zm0-38.49V23.47H15.3c4.89,0,8.52-1.67,8.52-6.7s-3.63-6.36-8.52-6.36Z"/><path class="logo-porto-2" d="M36.12,32.63c0-9.92,7.75-17.05,17.47-17.05s17.46,7.13,17.46,17.05S63.3,49.74,53.59,49.74,36.12,42.54,36.12,32.63Zm11.18,0c0,4,2.58,7,6.29,7s6.28-3,6.28-7-2.65-6.92-6.28-6.92S47.3,28.57,47.3,32.63Z"/><path class="logo-porto-2" d="M95.44,25.66h-4c-4.82,0-6.08,4.17-6.08,8.29V48.9H74.13V16.42H84.89v5.17c.67-3.7,3-5.29,5.21-5.29.84,0,5.34.12,5.34.12Z"/><path class="logo-porto-2" d="M114.75,4.82v11.6h6.5v9.15h-6.5v11.8c0,1.89,1.61,2.17,2.87,2.17a29.78,29.78,0,0,0,3.63-.21V48.9s-5.24.42-8,.42c-5.24,0-9.71-1.46-9.71-8.17V25.59H98.75V16.42h4.82V4.82Z"/><path class="logo-porto-2" d="M123.61,32.63c0-9.92,7.75-17.05,17.46-17.05s17.47,7.13,17.47,17.05-7.76,17.11-17.47,17.11S123.61,42.54,123.61,32.63Zm11.18,0c0,4,2.58,7,6.28,7s6.29-3,6.29-7-2.66-6.92-6.29-6.92S134.79,28.57,134.79,32.63Z"/><path class="logo-porto-2" d="M167.35,35.7a7,7,0,1,1-7,7.06A7,7,0,0,1,167.35,35.7Z"/></g></g></g></svg>